<svg width="30px" height="30px" viewBox="0 0 30 30" version="1.1" xmlns="http://www.w3.org/2000/svg" xmlns:xlink="http://www.w3.org/1999/xlink">
    <defs>
        <linearGradient x1="50%" y1="100%" x2="50%" y2="0%" id="linearGradient-1">
            <stop stop-color="#0153CD" offset="0%"></stop>
            <stop stop-color="#2684FF" offset="100%"></stop>
        </linearGradient>
         <linearGradient x1="50%" y1="100%" x2="50%" y2="0%" id="linearGradient-2">
            <stop stop-color="#ffffff" offset="0%" stop-opacity="0.526524257" ></stop>
            <stop stop-color="#ffffff" offset="100%"></stop>
        </linearGradient>
    </defs>
    <g id="深知" stroke="none" stroke-width="1" fill="none" fill-rule="evenodd">
        <g id="消息中心-copy-4" transform="translate(-263.000000, -366.000000)" fill-rule="nonzero">
            <g id="Group-Copy" transform="translate(227.000000, 331.000000)">
                <g id="Group-4" transform="translate(35.000000, 34.000000)">
                    <g id="Group-2">
                        <g id="Sensebot.20d1391d">
                            <g id="Group-3">
                                <rect id="Rectangle-Copy-7" fill-opacity="0" fill="#FFFFFF" x="0" y="0" width="32" height="32"></rect>
                                <g id="Group-19-Copy-2" transform="translate(1.333333, 1.333333)">
                                    <path d="M10.2222222,22.6666667 L19.1111111,22.6666667 C21.8111699,22.6666667 24,24.8554968 24,27.5555556 L24,29.0833333 L5.33333333,29.3333333 L5.33333333,27.5555556 C5.33333333,24.8554968 7.52216344,22.6666667 10.2222222,22.6666667 Z" id="Rectangle-13" fill="url(#linearGradient-1)" transform="translate(14.666667, 26.000000) scale(-1, 1) rotate(-180.000000) translate(-14.666667, -26.000000) "></path>
                                    <path d="M9.93179915,3.66666667 C10.4745181,1.55805563 12.3886407,0 14.6666667,0 C16.9446927,0 18.8588152,1.55805563 19.4015341,3.66666667 L24.4444444,3.66666667 C27.1445032,3.66666667 29.3333333,5.85549677 29.3333333,8.55555556 L29.3333333,19.5555556 C29.3333333,20.2305703 28.7861259,20.7777777 28.1111111,20.7777777 L1.22222222,20.7777777 C0.547207528,20.7777777 1.8590223e-15,20.2305703 1.77635684e-15,19.5555556 L-4.4408921e-16,8.55555556 C-7.74751043e-16,5.85549677 2.18883011,3.66666667 4.88888889,3.66666667 L9.93179915,3.66666667 Z M8.55555556,15.8888889 C10.5805996,15.8888889 12.2222222,14.2472663 12.2222222,12.2222222 C12.2222222,10.1971781 10.5805996,8.55555556 8.55555556,8.55555556 C6.53051147,8.55555556 4.88888889,10.1971781 4.88888889,12.2222222 C4.88888889,14.2472663 6.53051147,15.8888889 8.55555556,15.8888889 Z M20.7777777,15.8888889 C22.8028219,15.8888889 24.4444444,14.2472663 24.4444444,12.2222222 C24.4444444,10.1971781 22.8028219,8.55555556 20.7777777,8.55555556 C18.7527337,8.55555556 17.1111111,10.1971781 17.1111111,12.2222222 C17.1111111,14.2472663 18.7527337,15.8888889 20.7777777,15.8888889 Z" id="Combined-Shape" fill="#2684FF"></path>
                                </g>
                            </g>
                        </g>
                    </g>
                </g>
            </g>
        </g>
    </g>
</svg>