<svg width="17" height="13" viewBox="0 0 17 13" fill="none" xmlns="http://www.w3.org/2000/svg">
<path d="M0.503 2.384L8.5 6.382L16.497 2.384C16.4674 1.87444 16.2441 1.39549 15.8728 1.04523C15.5016 0.694965 15.0104 0.499906 14.5 0.5H2.5C1.98958 0.499906 1.49845 0.694965 1.12718 1.04523C0.755908 1.39549 0.532604 1.87444 0.503 2.384Z" fill="#C4C4C4"/>
<path d="M16.5 4.618L8.5 8.618L0.5 4.618V10.5C0.5 11.0304 0.710714 11.5391 1.08579 11.9142C1.46086 12.2893 1.96957 12.5 2.5 12.5H14.5C15.0304 12.5 15.5391 12.2893 15.9142 11.9142C16.2893 11.5391 16.5 11.0304 16.5 10.5V4.618Z" fill="#C4C4C4"/>
</svg>
